# xmcd CD database file
#
# Track frame offsets:
#	150
#	17077
#	41827
#	65972
#	88472
#	108760
#	139242
#	157432
#	185707
#	212155
#
# Disc length: 3149 seconds
#
# Revision: 0
# Processed by: cddbd v1.5.2PL0 Copyright (c) Steve Scherf et al.
# Submitted via: CDex 1.70beta2
#
DISCID=a10c4b0a
DTITLE=Per Husby - PEACEMAKER
DYEAR=1977
DGENRE=Jazz
TTITLE0=Au Private - Bloomdido
TTITLE1=Nokve
TTITLE2=	Smatta
TTITLE3=Introduction to No Particular Song
TTITLE4=Fantasy In D
TTITLE5=The Peacemaker
TTITLE6=The Masquerade Is Over
TTITLE7=Adgang
TTITLE8=Confirmation
TTITLE9=Lush Life
EXTD=YEAR: 1977
EXTT0=
EXTT1=
EXTT2=
EXTT3=
EXTT4=
EXTT5=
EXTT6=
EXTT7=
EXTT8=
EXTT9=
PLAYORDER=
